<?xml version="1.0" encoding="UTF-8"?>
<!DOCTYPE svg PUBLIC "-//W3C//DTD SVG 1.1//EN" "http://www.w3.org/Graphics/SVG/1.1/DTD/svg11.dtd">
<svg xmlns="http://www.w3.org/2000/svg" version="1.1" width="500px" height="500px" style="shape-rendering:geometricPrecision; text-rendering:geometricPrecision; image-rendering:optimizeQuality; fill-rule:evenodd; clip-rule:evenodd" xmlns:xlink="http://www.w3.org/1999/xlink">
<g><path style="opacity:0.986" fill="#ff1e1e" d="M 219.5,-0.5 C 239.5,-0.5 259.5,-0.5 279.5,-0.5C 363.571,11.3254 427.237,53.9921 470.5,127.5C 485.69,156.179 495.357,186.512 499.5,218.5C 499.5,239.5 499.5,260.5 499.5,281.5C 486.142,369.168 439.809,434.335 360.5,477C 335.124,487.842 308.791,495.342 281.5,499.5C 260.167,499.5 238.833,499.5 217.5,499.5C 139.132,488.154 78.1325,448.821 34.5,381.5C 15.3161,349.64 3.64942,315.64 -0.5,279.5C -0.5,259.5 -0.5,239.5 -0.5,219.5C 3.51966,186.649 13.0197,155.982 28,127.5C 38.9484,109.492 51.7817,92.1589 66.5,75.5C 108.239,32.4649 159.239,7.13159 219.5,-0.5 Z"/></g>
<g><path style="opacity:1" fill="#ff4945" d="M 282.5,124.5 C 279.833,124.5 277.167,124.5 274.5,124.5C 274.5,124.167 274.5,123.833 274.5,123.5C 265.295,122.208 255.962,122.208 246.5,123.5C 246.611,122.883 246.944,122.383 247.5,122C 258.5,121.333 269.5,121.333 280.5,122C 281.756,122.417 282.423,123.25 282.5,124.5 Z"/></g>
<g><path style="opacity:1" fill="#ff8f8e" d="M 274.5,123.5 C 264.801,123.275 255.134,123.608 245.5,124.5C 245.5,123.833 245.833,123.5 246.5,123.5C 255.962,122.208 265.295,122.208 274.5,123.5 Z"/></g>
<g><path style="opacity:1" fill="#ffd0d0" d="M 274.5,123.5 C 274.5,123.833 274.5,124.167 274.5,124.5C 262.76,124.142 251.093,124.808 239.5,126.5C 240.167,125.833 240.833,125.167 241.5,124.5C 242.833,124.5 244.167,124.5 245.5,124.5C 255.134,123.608 264.801,123.275 274.5,123.5 Z"/></g>
<g><path style="opacity:1" fill="#ff8a8a" d="M 284.5,124.5 C 286.861,124.674 289.194,125.007 291.5,125.5C 291.5,125.833 291.5,126.167 291.5,126.5C 288.848,126.59 286.515,125.924 284.5,124.5 Z"/></g>
<g><path style="opacity:1" fill="#ff8d8c" d="M 241.5,124.5 C 240.833,125.167 240.167,125.833 239.5,126.5C 238.167,126.5 236.833,126.5 235.5,126.5C 237.102,124.926 239.102,124.259 241.5,124.5 Z"/></g>
<g><path style="opacity:1" fill="#fffbfb" d="M 274.5,124.5 C 277.167,124.5 279.833,124.5 282.5,124.5C 283.167,124.5 283.833,124.5 284.5,124.5C 286.515,125.924 288.848,126.59 291.5,126.5C 292.791,126.263 293.791,126.596 294.5,127.5C 294.611,128.117 294.944,128.617 295.5,129C 297.866,129.44 300.199,129.94 302.5,130.5C 305.108,130.4 307.442,131.067 309.5,132.5C 311.417,135.263 314.083,136.929 317.5,137.5C 319.03,137.36 320.03,136.693 320.5,135.5C 320.989,134.005 321.655,132.671 322.5,131.5C 324.213,130.365 324.88,128.698 324.5,126.5C 327.167,126.5 329.833,126.5 332.5,126.5C 332.5,138.5 332.5,150.5 332.5,162.5C 328.5,162.5 324.5,162.5 320.5,162.5C 320.573,160.973 319.906,159.973 318.5,159.5C 318.5,157.5 317.5,156.5 315.5,156.5C 314.738,154.738 313.404,153.738 311.5,153.5C 309.419,152.01 307.086,151.01 304.5,150.5C 303.5,149.833 302.5,149.167 301.5,148.5C 298.749,146.025 295.416,145.025 291.5,145.5C 291.167,145.5 290.833,145.5 290.5,145.5C 288.365,143.631 285.698,142.964 282.5,143.5C 279.833,143.167 277.167,142.833 274.5,142.5C 274.167,142.5 273.833,142.5 273.5,142.5C 269.347,141.834 265.013,141.501 260.5,141.5C 255.778,141.508 251.445,142.175 247.5,143.5C 244.123,143.959 240.789,144.626 237.5,145.5C 235.302,145.12 233.635,145.787 232.5,147.5C 229.422,147.62 226.755,148.62 224.5,150.5C 223.791,151.404 222.791,151.737 221.5,151.5C 218.731,152.437 216.064,153.604 213.5,155C 212.29,156.039 211.29,157.206 210.5,158.5C 208.596,158.738 207.262,159.738 206.5,161.5C 199.882,165.118 194.548,170.118 190.5,176.5C 186.755,178.918 184.088,182.251 182.5,186.5C 180.952,186.821 180.285,187.821 180.5,189.5C 178.907,190.348 177.74,191.681 177,193.5C 176.517,194.448 176.351,195.448 176.5,196.5C 174.896,197.287 174.229,198.62 174.5,200.5C 171.361,203.669 169.695,207.669 169.5,212.5C 167.271,216.083 166.271,220.083 166.5,224.5C 165.883,224.611 165.383,224.944 165,225.5C 164.333,234.167 164.333,242.833 165,251.5C 165.698,254.004 166.531,256.337 167.5,258.5C 167.5,259.167 167.5,259.833 167.5,260.5C 167.12,262.698 167.787,264.365 169.5,265.5C 170.461,268.426 171.127,271.426 171.5,274.5C 171.643,277.385 172.643,279.718 174.5,281.5C 174.833,281.5 175.167,281.5 175.5,281.5C 175.5,281.833 175.5,282.167 175.5,282.5C 175.427,284.027 176.094,285.027 177.5,285.5C 177.5,285.833 177.5,286.167 177.5,286.5C 177.725,289.546 179.058,291.879 181.5,293.5C 181.833,294.167 182.167,294.833 182.5,295.5C 182.738,297.404 183.738,298.738 185.5,299.5C 185.833,300.167 186.167,300.833 186.5,301.5C 188.094,304.764 190.427,307.431 193.5,309.5C 194.167,309.833 194.833,310.167 195.5,310.5C 197.9,313.903 200.9,316.57 204.5,318.5C 205.585,320.587 207.251,321.92 209.5,322.5C 209.842,323.338 210.508,323.672 211.5,323.5C 211.973,324.906 212.973,325.573 214.5,325.5C 214.973,326.906 215.973,327.573 217.5,327.5C 217.973,328.906 218.973,329.573 220.5,329.5C 224.163,333.502 228.83,335.502 234.5,335.5C 234.833,335.5 235.167,335.5 235.5,335.5C 236.635,337.213 238.302,337.88 240.5,337.5C 252.398,339.278 264.398,339.945 276.5,339.5C 281.536,339.412 286.536,338.912 291.5,338C 301.802,334.205 311.802,329.705 321.5,324.5C 323.167,325.833 324.833,327.167 326.5,328.5C 327.911,330.914 329.911,332.581 332.5,333.5C 332.719,334.675 332.386,335.675 331.5,336.5C 328.459,338.235 325.792,340.235 323.5,342.5C 322.448,342.351 321.448,342.517 320.5,343C 318.681,343.74 317.348,344.907 316.5,346.5C 314.302,346.12 312.635,346.787 311.5,348.5C 308.29,348.87 305.623,350.203 303.5,352.5C 302.5,352.5 301.5,352.5 300.5,352.5C 298.302,352.12 296.635,352.787 295.5,354.5C 292.848,354.41 290.515,355.076 288.5,356.5C 285.167,356.5 281.833,356.5 278.5,356.5C 268.179,357.694 257.845,357.694 247.5,356.5C 243.802,356.448 240.135,356.114 236.5,355.5C 233.855,353.69 230.855,352.69 227.5,352.5C 227.167,352.5 226.833,352.5 226.5,352.5C 226.389,351.883 226.056,351.383 225.5,351C 222.487,350.091 219.487,349.258 216.5,348.5C 215.833,348.5 215.5,348.167 215.5,347.5C 208.103,344.251 201.103,340.251 194.5,335.5C 193.415,333.413 191.749,332.08 189.5,331.5C 188.738,329.738 187.404,328.738 185.5,328.5C 182.167,325.5 178.833,322.5 175.5,319.5C 174.92,317.251 173.587,315.585 171.5,314.5C 171.573,312.973 170.906,311.973 169.5,311.5C 169.573,309.973 168.906,308.973 167.5,308.5C 167.573,306.973 166.906,305.973 165.5,305.5C 165.443,304.391 165.11,303.391 164.5,302.5C 163.903,299.626 162.569,297.292 160.5,295.5C 160.068,294.29 159.401,293.29 158.5,292.5C 157.662,292.158 157.328,291.492 157.5,290.5C 156.313,287.388 154.98,284.388 153.5,281.5C 153.5,281.167 153.5,280.833 153.5,280.5C 152.73,274.138 151.064,268.138 148.5,262.5C 148.806,259.615 148.473,256.948 147.5,254.5C 147.5,253.167 147.5,251.833 147.5,250.5C 147.363,239.11 148.029,227.777 149.5,216.5C 150.371,213.997 151.037,211.33 151.5,208.5C 151.5,208.167 151.5,207.833 151.5,207.5C 152.537,206.07 153.204,204.403 153.5,202.5C 155.935,198.871 157.602,194.871 158.5,190.5C 159.877,188.711 160.877,186.711 161.5,184.5C 161.5,184.167 161.5,183.833 161.5,183.5C 163.262,182.738 164.262,181.404 164.5,179.5C 167.526,174.816 170.526,170.149 173.5,165.5C 178.5,161.167 183.167,156.5 187.5,151.5C 194.049,147.066 200.383,142.399 206.5,137.5C 207.609,137.443 208.609,137.11 209.5,136.5C 211.38,136.771 212.713,136.104 213.5,134.5C 213.833,134.5 214.167,134.5 214.5,134.5C 216.027,134.573 217.027,133.906 217.5,132.5C 220.438,132.023 223.104,131.023 225.5,129.5C 228.746,128.946 231.746,127.946 234.5,126.5C 234.833,126.5 235.167,126.5 235.5,126.5C 236.833,126.5 238.167,126.5 239.5,126.5C 251.093,124.808 262.76,124.142 274.5,124.5 Z"/></g>
<g><path style="opacity:1" fill="#ff5a58" d="M 291.5,126.5 C 291.5,126.167 291.5,125.833 291.5,125.5C 294.916,125.528 297.916,126.528 300.5,128.5C 298.435,128.483 296.435,128.15 294.5,127.5C 293.791,126.596 292.791,126.263 291.5,126.5 Z"/></g>
<g><path style="opacity:1" fill="#ff8f8d" d="M 234.5,126.5 C 231.746,127.946 228.746,128.946 225.5,129.5C 228.008,127.446 231.008,126.446 234.5,126.5 Z"/></g>
<g><path style="opacity:1" fill="#ffdcdc" d="M 324.5,126.5 C 327.287,125.523 330.287,125.19 333.5,125.5C 333.5,138.167 333.5,150.833 333.5,163.5C 328.968,163.818 324.634,163.485 320.5,162.5C 324.5,162.5 328.5,162.5 332.5,162.5C 332.5,150.5 332.5,138.5 332.5,126.5C 329.833,126.5 327.167,126.5 324.5,126.5 Z"/></g>
<g><path style="opacity:1" fill="#ff9e9e" d="M 333.5,163.5 C 333.5,150.833 333.5,138.167 333.5,125.5C 330.287,125.19 327.287,125.523 324.5,126.5C 324.88,128.698 324.213,130.365 322.5,131.5C 323.038,129.883 323.371,128.216 323.5,126.5C 326.684,124.586 330.351,123.92 334.5,124.5C 334.829,137.677 334.495,150.677 333.5,163.5 Z"/></g>
<g><path style="opacity:1" fill="#ff5650" d="M 323.5,126.5 C 323.371,128.216 323.038,129.883 322.5,131.5C 321.655,132.671 320.989,134.005 320.5,135.5C 320.167,135.5 319.833,135.5 319.5,135.5C 320.06,133.199 320.56,130.866 321,128.5C 321.708,127.619 322.542,126.953 323.5,126.5 Z"/></g>
<g><path style="opacity:1" fill="#ffbfbe" d="M 294.5,127.5 C 296.435,128.15 298.435,128.483 300.5,128.5C 300.833,128.5 301.167,128.5 301.5,128.5C 301.833,129.167 302.167,129.833 302.5,130.5C 300.199,129.94 297.866,129.44 295.5,129C 294.944,128.617 294.611,128.117 294.5,127.5 Z"/></g>
<g><path style="opacity:1" fill="#ffa19e" d="M 225.5,129.5 C 223.104,131.023 220.438,132.023 217.5,132.5C 219.503,130.018 222.169,129.018 225.5,129.5 Z"/></g>
<g><path style="opacity:1" fill="#ff6866" d="M 214.5,133.5 C 214.5,133.833 214.5,134.167 214.5,134.5C 214.167,134.5 213.833,134.5 213.5,134.5C 212.391,134.557 211.391,134.89 210.5,135.5C 211.183,133.824 212.517,133.157 214.5,133.5 Z"/></g>
<g><path style="opacity:1" fill="#ffb4b3" d="M 217.5,132.5 C 217.027,133.906 216.027,134.573 214.5,134.5C 214.5,134.167 214.5,133.833 214.5,133.5C 215.391,132.89 216.391,132.557 217.5,132.5 Z"/></g>
<g><path style="opacity:1" fill="#ff534f" d="M 301.5,128.5 C 306.942,129.61 311.942,131.61 316.5,134.5C 315.833,134.5 315.167,134.5 314.5,134.5C 312.833,133.833 311.167,133.167 309.5,132.5C 307.442,131.067 305.108,130.4 302.5,130.5C 302.167,129.833 301.833,129.167 301.5,128.5 Z"/></g>
<g><path style="opacity:1" fill="#ffd9d9" d="M 309.5,132.5 C 311.167,133.167 312.833,133.833 314.5,134.5C 315.879,136.597 317.545,136.93 319.5,135.5C 319.833,135.5 320.167,135.5 320.5,135.5C 320.03,136.693 319.03,137.36 317.5,137.5C 314.083,136.929 311.417,135.263 309.5,132.5 Z"/></g>
<g><path style="opacity:1" fill="#ffa6a6" d="M 213.5,134.5 C 212.713,136.104 211.38,136.771 209.5,136.5C 209.5,136.167 209.5,135.833 209.5,135.5C 209.833,135.5 210.167,135.5 210.5,135.5C 211.391,134.89 212.391,134.557 213.5,134.5 Z"/></g>
<g><path style="opacity:1" fill="#ff8a89" d="M 314.5,134.5 C 315.167,134.5 315.833,134.5 316.5,134.5C 317.209,135.404 318.209,135.737 319.5,135.5C 317.545,136.93 315.879,136.597 314.5,134.5 Z"/></g>
<g><path style="opacity:1" fill="#ff6d6b" d="M 209.5,135.5 C 209.5,135.833 209.5,136.167 209.5,136.5C 208.609,137.11 207.609,137.443 206.5,137.5C 206.973,136.094 207.973,135.427 209.5,135.5 Z"/></g>
<g><path style="opacity:1" fill="#ff9593" d="M 206.5,137.5 C 200.383,142.399 194.049,147.066 187.5,151.5C 192.867,145.637 199.201,140.97 206.5,137.5 Z"/></g>
<g><path style="opacity:1" fill="#ffabaa" d="M 273.5,142.5 C 268.167,142.5 262.833,142.5 257.5,142.5C 254.098,142.342 250.764,142.676 247.5,143.5C 251.445,142.175 255.778,141.508 260.5,141.5C 265.013,141.501 269.347,141.834 273.5,142.5 Z"/></g>
<g><path style="opacity:1" fill="#ff6967" d="M 257.5,142.5 C 250.888,143.923 244.222,145.256 237.5,146.5C 237.5,146.167 237.5,145.833 237.5,145.5C 240.789,144.626 244.123,143.959 247.5,143.5C 250.764,142.676 254.098,142.342 257.5,142.5 Z"/></g>
<g><path style="opacity:1" fill="#ff7675" d="M 274.5,142.5 C 277.167,142.833 279.833,143.167 282.5,143.5C 282.5,143.833 282.5,144.167 282.5,144.5C 279.302,145.036 276.635,144.369 274.5,142.5 Z"/></g>
<g><path style="opacity:1" fill="#ffc4c3" d="M 282.5,144.5 C 282.5,144.167 282.5,143.833 282.5,143.5C 285.698,142.964 288.365,143.631 290.5,145.5C 289.167,145.167 287.833,144.833 286.5,144.5C 285.167,144.5 283.833,144.5 282.5,144.5 Z"/></g>
<g><path style="opacity:1" fill="#ff6d6c" d="M 286.5,144.5 C 287.833,144.833 289.167,145.167 290.5,145.5C 290.833,145.5 291.167,145.5 291.5,145.5C 291.5,145.833 291.5,146.167 291.5,146.5C 289.302,146.88 287.635,146.213 286.5,144.5 Z"/></g>
<g><path style="opacity:1" fill="#ffadad" d="M 237.5,145.5 C 237.5,145.833 237.5,146.167 237.5,146.5C 235.784,146.629 234.117,146.962 232.5,147.5C 233.635,145.787 235.302,145.12 237.5,145.5 Z"/></g>
<g><path style="opacity:1" fill="#ffc5c4" d="M 291.5,146.5 C 291.5,146.167 291.5,145.833 291.5,145.5C 295.416,145.025 298.749,146.025 301.5,148.5C 300.833,148.5 300.167,148.5 299.5,148.5C 296.888,147.629 294.221,146.963 291.5,146.5 Z"/></g>
<g><path style="opacity:1" fill="#ff8d8b" d="M 232.5,147.5 C 230.544,148.492 228.544,149.492 226.5,150.5C 225.833,150.5 225.167,150.5 224.5,150.5C 226.755,148.62 229.422,147.62 232.5,147.5 Z"/></g>
<g><path style="opacity:1" fill="#ff7473" d="M 299.5,148.5 C 300.167,148.5 300.833,148.5 301.5,148.5C 302.5,149.167 303.5,149.833 304.5,150.5C 302.302,150.88 300.635,150.213 299.5,148.5 Z"/></g>
<g><path style="opacity:1" fill="#ffb6b5" d="M 221.5,151.5 C 220.694,152.728 219.694,153.728 218.5,154.5C 215.591,155.424 212.924,156.757 210.5,158.5C 211.29,157.206 212.29,156.039 213.5,155C 216.064,153.604 218.731,152.437 221.5,151.5 Z"/></g>
<g><path style="opacity:1" fill="#ff5855" d="M 224.5,150.5 C 225.167,150.5 225.833,150.5 226.5,150.5C 224.377,152.797 221.71,154.13 218.5,154.5C 219.694,153.728 220.694,152.728 221.5,151.5C 222.791,151.737 223.791,151.404 224.5,150.5 Z"/></g>
<g><path style="opacity:1" fill="#ff6764" d="M 304.5,150.5 C 307.086,151.01 309.419,152.01 311.5,153.5C 311.5,153.833 311.5,154.167 311.5,154.5C 308.763,153.783 306.43,152.45 304.5,150.5 Z"/></g>
<g><path style="opacity:1" fill="#ffa7a6" d="M 311.5,154.5 C 311.5,154.167 311.5,153.833 311.5,153.5C 313.404,153.738 314.738,154.738 315.5,156.5C 313.938,156.267 312.605,155.6 311.5,154.5 Z"/></g>
<g><path style="opacity:1" fill="#ffafae" d="M 315.5,156.5 C 317.5,156.5 318.5,157.5 318.5,159.5C 317.167,158.833 316.167,157.833 315.5,156.5 Z"/></g>
<g><path style="opacity:1" fill="#ff9290" d="M 187.5,151.5 C 183.167,156.5 178.5,161.167 173.5,165.5C 177.167,159.833 181.833,155.167 187.5,151.5 Z"/></g>
<g><path style="opacity:1" fill="#ff8785" d="M 210.5,158.5 C 209.738,160.262 208.404,161.262 206.5,161.5C 207.262,159.738 208.596,158.738 210.5,158.5 Z"/></g>
<g><path style="opacity:1" fill="#ff7977" d="M 318.5,159.5 C 319.906,159.973 320.573,160.973 320.5,162.5C 319.094,162.027 318.427,161.027 318.5,159.5 Z"/></g>
<g><path style="opacity:1" fill="#ff8886" d="M 206.5,161.5 C 201.193,166.472 195.86,171.472 190.5,176.5C 194.548,170.118 199.882,165.118 206.5,161.5 Z"/></g>
<g><path style="opacity:1" fill="#ff807e" d="M 173.5,165.5 C 170.526,170.149 167.526,174.816 164.5,179.5C 163.833,179.833 163.167,180.167 162.5,180.5C 165.015,174.652 168.682,169.652 173.5,165.5 Z"/></g>
<g><path style="opacity:1" fill="#ff8482" d="M 190.5,176.5 C 188.183,180.146 185.516,183.48 182.5,186.5C 184.088,182.251 186.755,178.918 190.5,176.5 Z"/></g>
<g><path style="opacity:1" fill="#ffb1b0" d="M 164.5,179.5 C 164.262,181.404 163.262,182.738 161.5,183.5C 161.557,182.391 161.89,181.391 162.5,180.5C 163.167,180.167 163.833,179.833 164.5,179.5 Z"/></g>
<g><path style="opacity:1" fill="#ffb2b2" d="M 182.5,186.5 C 182.068,187.71 181.401,188.71 180.5,189.5C 180.285,187.821 180.952,186.821 182.5,186.5 Z"/></g>
<g><path style="opacity:1" fill="#ff9290" d="M 161.5,184.5 C 160.877,186.711 159.877,188.711 158.5,190.5C 158.167,190.5 157.833,190.5 157.5,190.5C 157.87,187.733 159.204,185.733 161.5,184.5 Z"/></g>
<g><path style="opacity:1" fill="#ff7d7c" d="M 157.5,191.5 C 157.573,193.027 156.906,194.027 155.5,194.5C 155.427,192.973 156.094,191.973 157.5,191.5 Z"/></g>
<g><path style="opacity:1" fill="#ffc8c8" d="M 157.5,190.5 C 157.833,190.5 158.167,190.5 158.5,190.5C 157.602,194.871 155.935,198.871 153.5,202.5C 153.694,199.67 154.361,197.004 155.5,194.5C 156.906,194.027 157.573,193.027 157.5,191.5C 157.5,191.167 157.5,190.833 157.5,190.5 Z"/></g>
<g><path style="opacity:1" fill="#ffb1b0" d="M 180.5,189.5 C 179.905,192.317 178.572,194.65 176.5,196.5C 176.351,195.448 176.517,194.448 177,193.5C 177.74,191.681 178.907,190.348 180.5,189.5 Z"/></g>
<g><path style="opacity:1" fill="#ffb2b1" d="M 176.5,196.5 C 176.167,197.833 175.833,199.167 175.5,200.5C 175.167,200.5 174.833,200.5 174.5,200.5C 174.229,198.62 174.896,197.287 176.5,196.5 Z"/></g>
<g><path style="opacity:1" fill="#ff6f6e" d="M 174.5,200.5 C 174.833,200.5 175.167,200.5 175.5,200.5C 175.573,202.027 174.906,203.027 173.5,203.5C 173.557,202.391 173.89,201.391 174.5,200.5 Z"/></g>
<g><path style="opacity:1" fill="#ff9494" d="M 153.5,202.5 C 153.204,204.403 152.537,206.07 151.5,207.5C 151.12,205.302 151.787,203.635 153.5,202.5 Z"/></g>
<g><path style="opacity:1" fill="#ffb7b6" d="M 174.5,200.5 C 173.89,201.391 173.557,202.391 173.5,203.5C 173.5,204.167 173.5,204.833 173.5,205.5C 172.167,207.833 170.833,210.167 169.5,212.5C 169.695,207.669 171.361,203.669 174.5,200.5 Z"/></g>
<g><path style="opacity:1" fill="#ff504d" d="M 173.5,205.5 C 173.154,209.656 171.82,213.323 169.5,216.5C 169.5,215.167 169.5,213.833 169.5,212.5C 170.833,210.167 172.167,207.833 173.5,205.5 Z"/></g>
<g><path style="opacity:1" fill="#ff9c9a" d="M 151.5,208.5 C 151.037,211.33 150.371,213.997 149.5,216.5C 148.964,213.302 149.631,210.635 151.5,208.5 Z"/></g>
<g><path style="opacity:1" fill="#ff8382" d="M 169.5,217.5 C 168.962,219.117 168.629,220.784 168.5,222.5C 168.167,222.5 167.833,222.5 167.5,222.5C 167.12,220.302 167.787,218.635 169.5,217.5 Z"/></g>
<g><path style="opacity:1" fill="#ffa9a8" d="M 169.5,212.5 C 169.5,213.833 169.5,215.167 169.5,216.5C 169.5,216.833 169.5,217.167 169.5,217.5C 167.787,218.635 167.12,220.302 167.5,222.5C 166.646,231.805 166.313,241.139 166.5,250.5C 165.212,241.962 165.212,233.295 166.5,224.5C 166.271,220.083 167.271,216.083 169.5,212.5 Z"/></g>
<g><path style="opacity:1" fill="#ffd1d0" d="M 166.5,224.5 C 165.212,233.295 165.212,241.962 166.5,250.5C 167.473,252.948 167.806,255.615 167.5,258.5C 166.531,256.337 165.698,254.004 165,251.5C 164.333,242.833 164.333,234.167 165,225.5C 165.383,224.944 165.883,224.611 166.5,224.5 Z"/></g>
<g><path style="opacity:1" fill="#ff9998" d="M 149.5,216.5 C 148.029,227.777 147.363,239.11 147.5,250.5C 146.28,242.315 146.28,233.982 147.5,225.5C 147.215,222.171 147.882,219.171 149.5,216.5 Z"/></g>
<g><path style="opacity:1" fill="#ff5453" d="M 147.5,225.5 C 146.28,233.982 146.28,242.315 147.5,250.5C 147.5,251.833 147.5,253.167 147.5,254.5C 146.732,253.737 146.232,252.737 146,251.5C 145.333,243.167 145.333,234.833 146,226.5C 146.383,225.944 146.883,225.611 147.5,225.5 Z"/></g>
<g><path style="opacity:1" fill="#ff3c3a" d="M 167.5,222.5 C 167.833,222.5 168.167,222.5 168.5,222.5C 168.204,235.549 168.537,248.549 169.5,261.5C 168.833,261.167 168.167,260.833 167.5,260.5C 167.5,259.833 167.5,259.167 167.5,258.5C 167.806,255.615 167.473,252.948 166.5,250.5C 166.313,241.139 166.646,231.805 167.5,222.5 Z"/></g>
<g><path style="opacity:1" fill="#ff9f9d" d="M 167.5,260.5 C 168.167,260.833 168.833,261.167 169.5,261.5C 169.5,261.833 169.5,262.167 169.5,262.5C 169.5,263.5 169.5,264.5 169.5,265.5C 167.787,264.365 167.12,262.698 167.5,260.5 Z"/></g>
<g><path style="opacity:1" fill="#ff4e4a" d="M 169.5,262.5 C 171.405,266.556 172.739,270.89 173.5,275.5C 172.833,275.167 172.167,274.833 171.5,274.5C 171.127,271.426 170.461,268.426 169.5,265.5C 169.5,264.5 169.5,263.5 169.5,262.5 Z"/></g>
<g><path style="opacity:1" fill="#ff8c89" d="M 148.5,262.5 C 151.064,268.138 152.73,274.138 153.5,280.5C 152.027,278.417 150.86,276.084 150,273.5C 149.452,269.83 148.952,266.163 148.5,262.5 Z"/></g>
<g><path style="opacity:1" fill="#ffcdcc" d="M 171.5,274.5 C 172.167,274.833 172.833,275.167 173.5,275.5C 173.5,276.5 173.5,277.5 173.5,278.5C 173.557,279.609 173.89,280.609 174.5,281.5C 172.643,279.718 171.643,277.385 171.5,274.5 Z"/></g>
<g><path style="opacity:1" fill="#ff8d8c" d="M 173.5,278.5 C 174.906,278.973 175.573,279.973 175.5,281.5C 175.167,281.5 174.833,281.5 174.5,281.5C 173.89,280.609 173.557,279.609 173.5,278.5 Z"/></g>
<g><path style="opacity:1" fill="#ff8483" d="M 175.5,282.5 C 176.906,282.973 177.573,283.973 177.5,285.5C 176.094,285.027 175.427,284.027 175.5,282.5 Z"/></g>
<g><path style="opacity:1" fill="#ff5752" d="M 153.5,281.5 C 154.98,284.388 156.313,287.388 157.5,290.5C 154.531,288.38 153.198,285.38 153.5,281.5 Z"/></g>
<g><path style="opacity:1" fill="#ffa7a6" d="M 177.5,286.5 C 179.199,288.566 180.532,290.9 181.5,293.5C 179.058,291.879 177.725,289.546 177.5,286.5 Z"/></g>
<g><path style="opacity:1" fill="#ff6762" d="M 158.5,292.5 C 159.401,293.29 160.068,294.29 160.5,295.5C 161.11,296.391 161.443,297.391 161.5,298.5C 159.031,297.393 158.031,295.393 158.5,292.5 Z"/></g>
<g><path style="opacity:1" fill="#ffa8a7" d="M 182.5,295.5 C 184.262,296.262 185.262,297.596 185.5,299.5C 183.738,298.738 182.738,297.404 182.5,295.5 Z"/></g>
<g><path style="opacity:1" fill="#ffc6c5" d="M 160.5,295.5 C 162.569,297.292 163.903,299.626 164.5,302.5C 164.167,302.5 163.833,302.5 163.5,302.5C 162.833,301.167 162.167,299.833 161.5,298.5C 161.443,297.391 161.11,296.391 160.5,295.5 Z"/></g>
<g><path style="opacity:1" fill="#ffb1b0" d="M 186.5,301.5 C 189.573,303.569 191.906,306.236 193.5,309.5C 190.427,307.431 188.094,304.764 186.5,301.5 Z"/></g>
<g><path style="opacity:1" fill="#ff6f6d" d="M 163.5,302.5 C 163.833,302.5 164.167,302.5 164.5,302.5C 165.11,303.391 165.443,304.391 165.5,305.5C 164.094,305.027 163.427,304.027 163.5,302.5 Z"/></g>
<g><path style="opacity:1" fill="#ff7574" d="M 165.5,305.5 C 166.906,305.973 167.573,306.973 167.5,308.5C 166.094,308.027 165.427,307.027 165.5,305.5 Z"/></g>
<g><path style="opacity:1" fill="#ff716f" d="M 167.5,308.5 C 168.906,308.973 169.573,309.973 169.5,311.5C 168.094,311.027 167.427,310.027 167.5,308.5 Z"/></g>
<g><path style="opacity:1" fill="#ff5d5a" d="M 195.5,310.5 C 199.1,312.43 202.1,315.097 204.5,318.5C 200.9,316.57 197.9,313.903 195.5,310.5 Z"/></g>
<g><path style="opacity:1" fill="#ff6361" d="M 169.5,311.5 C 170.906,311.973 171.573,312.973 171.5,314.5C 170.094,314.027 169.427,313.027 169.5,311.5 Z"/></g>
<g><path style="opacity:1" fill="#ff5e5b" d="M 171.5,314.5 C 173.587,315.585 174.92,317.251 175.5,319.5C 173.413,318.415 172.08,316.749 171.5,314.5 Z"/></g>
<g><path style="opacity:1" fill="#ff6764" d="M 204.5,318.5 C 206.749,319.08 208.415,320.413 209.5,322.5C 207.251,321.92 205.585,320.587 204.5,318.5 Z"/></g>
<g><path style="opacity:1" fill="#ff6361" d="M 211.5,323.5 C 213.027,323.427 214.027,324.094 214.5,325.5C 212.973,325.573 211.973,324.906 211.5,323.5 Z"/></g>
<g><path style="opacity:1" fill="#ff645f" d="M 317.5,323.5 C 315.736,325.121 313.736,326.454 311.5,327.5C 312.634,324.966 314.634,323.633 317.5,323.5 Z"/></g>
<g><path style="opacity:1" fill="#ff4641" d="M 214.5,325.5 C 218.686,325.763 222.019,327.429 224.5,330.5C 223.167,330.167 221.833,329.833 220.5,329.5C 220.027,328.094 219.027,327.427 217.5,327.5C 215.973,327.573 214.973,326.906 214.5,325.5 Z"/></g>
<g><path style="opacity:1" fill="#ffb8b7" d="M 185.5,328.5 C 187.404,328.738 188.738,329.738 189.5,331.5C 187.596,331.262 186.262,330.262 185.5,328.5 Z"/></g>
<g><path style="opacity:1" fill="#ff8c8b" d="M 217.5,327.5 C 219.027,327.427 220.027,328.094 220.5,329.5C 218.973,329.573 217.973,328.906 217.5,327.5 Z"/></g>
<g><path style="opacity:1" fill="#ffc0bf" d="M 189.5,331.5 C 191.749,332.08 193.415,333.413 194.5,335.5C 192.251,334.92 190.585,333.587 189.5,331.5 Z"/></g>
<g><path style="opacity:1" fill="#ffb7b5" d="M 220.5,329.5 C 221.833,329.833 223.167,330.167 224.5,330.5C 227.625,332.126 230.958,333.46 234.5,334.5C 234.5,334.833 234.5,335.167 234.5,335.5C 228.83,335.502 224.163,333.502 220.5,329.5 Z"/></g>
<g><path style="opacity:1" fill="#ff7573" d="M 326.5,328.5 C 329.089,329.419 331.089,331.086 332.5,333.5C 329.911,332.581 327.911,330.914 326.5,328.5 Z"/></g>
<g><path style="opacity:1" fill="#ff524f" d="M 294.5,334.5 C 294.5,334.833 294.5,335.167 294.5,335.5C 292.139,335.674 289.806,336.007 287.5,336.5C 289.279,334.656 291.612,333.99 294.5,334.5 Z"/></g>
<g><path style="opacity:1" fill="#ff9d9c" d="M 297.5,333.5 C 297.027,334.906 296.027,335.573 294.5,335.5C 294.5,335.167 294.5,334.833 294.5,334.5C 295.391,333.89 296.391,333.557 297.5,333.5 Z"/></g>
<g><path style="opacity:1" fill="#ff9998" d="M 332.5,333.5 C 333.782,334.708 333.782,336.042 332.5,337.5C 329.718,339.629 326.718,341.296 323.5,342.5C 325.792,340.235 328.459,338.235 331.5,336.5C 332.386,335.675 332.719,334.675 332.5,333.5 Z"/></g>
<g><path style="opacity:1" fill="#ff514e" d="M 234.5,335.5 C 234.5,335.167 234.5,334.833 234.5,334.5C 239.533,335.435 244.533,336.602 249.5,338C 258.494,338.5 267.494,338.666 276.5,338.5C 276.5,338.833 276.5,339.167 276.5,339.5C 264.398,339.945 252.398,339.278 240.5,337.5C 239.07,336.463 237.403,335.796 235.5,335.5C 235.167,335.5 234.833,335.5 234.5,335.5 Z"/></g>
<g><path style="opacity:1" fill="#ffacab" d="M 235.5,335.5 C 237.403,335.796 239.07,336.463 240.5,337.5C 238.302,337.88 236.635,337.213 235.5,335.5 Z"/></g>
<g><path style="opacity:1" fill="#ff4b4a" d="M 286.5,336.5 C 283.997,337.371 281.33,338.037 278.5,338.5C 278.611,337.883 278.944,337.383 279.5,337C 281.81,336.503 284.143,336.337 286.5,336.5 Z"/></g>
<g><path style="opacity:1" fill="#ffc4c3" d="M 317.5,323.5 C 319.099,323.232 320.432,323.566 321.5,324.5C 311.802,329.705 301.802,334.205 291.5,338C 286.536,338.912 281.536,339.412 276.5,339.5C 276.5,339.167 276.5,338.833 276.5,338.5C 277.167,338.5 277.833,338.5 278.5,338.5C 281.33,338.037 283.997,337.371 286.5,336.5C 286.833,336.5 287.167,336.5 287.5,336.5C 289.806,336.007 292.139,335.674 294.5,335.5C 296.027,335.573 297.027,334.906 297.5,333.5C 302.139,331.516 306.805,329.516 311.5,327.5C 313.736,326.454 315.736,325.121 317.5,323.5 Z"/></g>
<g><path style="opacity:1" fill="#ffb2b0" d="M 194.5,335.5 C 201.103,340.251 208.103,344.251 215.5,347.5C 214.833,347.5 214.167,347.5 213.5,347.5C 210.149,346.102 206.816,344.602 203.5,343C 200.221,340.759 197.221,338.259 194.5,335.5 Z"/></g>
<g><path style="opacity:1" fill="#ffb4b4" d="M 323.5,342.5 C 322.205,343.488 320.872,344.488 319.5,345.5C 318.391,345.557 317.391,345.89 316.5,346.5C 317.348,344.907 318.681,343.74 320.5,343C 321.448,342.517 322.448,342.351 323.5,342.5 Z"/></g>
<g><path style="opacity:1" fill="#ffafaf" d="M 316.5,346.5 C 315.07,347.537 313.403,348.204 311.5,348.5C 312.635,346.787 314.302,346.12 316.5,346.5 Z"/></g>
<g><path style="opacity:1" fill="#ff7e7d" d="M 213.5,347.5 C 214.167,347.5 214.833,347.5 215.5,347.5C 215.5,348.167 215.833,348.5 216.5,348.5C 216.5,348.833 216.5,349.167 216.5,349.5C 214.973,349.573 213.973,348.906 213.5,347.5 Z"/></g>
<g><path style="opacity:1" fill="#ffb3b2" d="M 216.5,349.5 C 216.5,349.167 216.5,348.833 216.5,348.5C 219.487,349.258 222.487,350.091 225.5,351C 226.056,351.383 226.389,351.883 226.5,352.5C 225.167,352.167 223.833,351.833 222.5,351.5C 220.315,351.296 218.315,350.63 216.5,349.5 Z"/></g>
<g><path style="opacity:1" fill="#ff9391" d="M 311.5,348.5 C 309.215,350.459 306.549,351.792 303.5,352.5C 305.623,350.203 308.29,348.87 311.5,348.5 Z"/></g>
<g><path style="opacity:1" fill="#ff413c" d="M 319.5,345.5 C 319.5,346.5 319.5,347.5 319.5,348.5C 311.816,351.839 303.816,354.172 295.5,355.5C 295.5,355.167 295.5,354.833 295.5,354.5C 297.403,354.204 299.07,353.537 300.5,352.5C 301.5,352.5 302.5,352.5 303.5,352.5C 306.549,351.792 309.215,350.459 311.5,348.5C 313.403,348.204 315.07,347.537 316.5,346.5C 317.391,345.89 318.391,345.557 319.5,345.5 Z"/></g>
<g><path style="opacity:1" fill="#ff7170" d="M 222.5,351.5 C 223.833,351.833 225.167,352.167 226.5,352.5C 226.833,352.5 227.167,352.5 227.5,352.5C 227.5,352.833 227.5,353.167 227.5,353.5C 225.302,353.88 223.635,353.213 222.5,351.5 Z"/></g>
<g><path style="opacity:1" fill="#ffbaba" d="M 227.5,353.5 C 227.5,353.167 227.5,352.833 227.5,352.5C 230.855,352.69 233.855,353.69 236.5,355.5C 233.402,355.244 230.402,354.578 227.5,353.5 Z"/></g>
<g><path style="opacity:1" fill="#ffb8b8" d="M 300.5,352.5 C 299.07,353.537 297.403,354.204 295.5,354.5C 296.635,352.787 298.302,352.12 300.5,352.5 Z"/></g>
<g><path style="opacity:1" fill="#ff8887" d="M 295.5,354.5 C 295.5,354.833 295.5,355.167 295.5,355.5C 293.194,355.993 290.861,356.326 288.5,356.5C 290.515,355.076 292.848,354.41 295.5,354.5 Z"/></g>
<g><path style="opacity:1" fill="#ff8a89" d="M 236.5,355.5 C 240.135,356.114 243.802,356.448 247.5,356.5C 249.292,357.309 251.292,357.809 253.5,358C 260.826,358.5 268.159,358.666 275.5,358.5C 266.676,359.657 257.676,359.824 248.5,359C 244.285,358.145 240.285,356.978 236.5,355.5 Z"/></g>
<g><path style="opacity:1" fill="#ffdddd" d="M 247.5,356.5 C 257.845,357.694 268.179,357.694 278.5,356.5C 277.5,357.167 276.5,357.833 275.5,358.5C 268.159,358.666 260.826,358.5 253.5,358C 251.292,357.809 249.292,357.309 247.5,356.5 Z"/></g>
<g><path style="opacity:1" fill="#ff9695" d="M 278.5,356.5 C 281.833,356.5 285.167,356.5 288.5,356.5C 284.343,357.449 280.01,358.116 275.5,358.5C 276.5,357.833 277.5,357.167 278.5,356.5 Z"/></g>
</svg>
